<?xml version="1.0" standalone="no"?>
<!DOCTYPE svg PUBLIC "-//W3C//DTD SVG 20010904//EN"
 "http://www.w3.org/TR/2001/REC-SVG-20010904/DTD/svg10.dtd">
<svg version="1.0" xmlns="http://www.w3.org/2000/svg"
 width="900.000000pt" height="780.000000pt" viewBox="0 0 900.000000 780.000000"
 preserveAspectRatio="xMidYMid meet">

<g transform="translate(0.000000,780.000000) scale(0.100000,-0.100000)"
fill="#000000" stroke="none">
<path d="M4265 7793 c-565 -46 -1008 -164 -1466 -393 -392 -195 -688 -409
-1000 -720 -181 -180 -260 -271 -391 -446 -722 -973 -936 -2245 -573 -3419
362 -1168 1286 -2108 2457 -2499 675 -226 1415 -256 2113 -86 705 171 1325
524 1835 1046 617 632 980 1402 1082 2299 17 147 17 617 0 770 -19 169 -56
376 -96 540 -256 1038 -954 1938 -1901 2452 -477 259 -992 410 -1544 453 -123
9 -419 11 -516 3z m620 -338 c428 -48 812 -162 1196 -356 1610 -813 2346
-2705 1706 -4388 -110 -290 -285 -607 -474 -858 -99 -132 -210 -263 -223 -263
-4 0 -11 26 -15 58 -11 88 -73 325 -117 447 -22 61 -73 178 -113 260 -297 604
-804 1063 -1438 1301 l-127 48 47 29 c133 82 313 248 415 382 357 471 414
1126 141 1644 -256 489 -707 791 -1255 843 -277 26 -584 -35 -834 -166 -130
-68 -220 -128 -318 -215 -522 -459 -677 -1200 -384 -1831 110 -237 310 -471
530 -621 l97 -66 -127 -48 c-148 -55 -360 -160 -482 -237 -604 -382 -1033
-1002 -1168 -1690 -15 -76 -31 -136 -37 -135 -17 6 -181 206 -265 324 -358
501 -576 1080 -641 1703 -16 151 -16 534 0 685 47 441 165 846 362 1236 524
1038 1518 1747 2672 1904 267 37 582 40 852 10z m-82 -1208 c443 -117 775
-451 893 -895 35 -132 44 -363 20 -504 -84 -493 -443 -876 -937 -999 -83 -21
-117 -24 -284 -23 -173 0 -199 3 -287 27 -337 90 -605 290 -773 577 -171 292
-213 678 -109 998 122 372 415 669 783 792 146 49 226 60 421 56 150 -3 189
-7 273 -29z m3 -2772 c250 -33 457 -97 699 -215 381 -186 681 -450 911 -800
215 -328 327 -663 369 -1102 l6 -67 -99 -79 c-535 -426 -1157 -679 -1852 -753
-145 -16 -542 -16 -680 0 -717 81 -1346 340 -1878 773 l-72 60 5 66 c26 297
88 543 199 792 320 716 1018 1230 1801 1329 121 15 463 12 591 -4z"/>
</g>
</svg>
